<?xml version="1.0" encoding="UTF-8"?>
<svg width="237px" height="51px" viewBox="0 0 237 51" version="1.1" xmlns="http://www.w3.org/2000/svg" xmlns:xlink="http://www.w3.org/1999/xlink">
    <!-- Generator: Sketch 54.1 (76490) - https://sketchapp.com -->
    <title>Logo Reveal</title>
    <desc>Created with Sketch.</desc>
    <defs>
        <polygon id="path-1" points="0 0.0564373898 38 0.0564373898 38 50.1119929 0 50.1119929"></polygon>
        <polygon id="path-3" points="0.100385251 0.168822362 27.7817766 0.168822362 27.7817766 49.3022724 0.100385251 49.3022724"></polygon>
    </defs>
    <g id="Setup-Content-Platform-[Content-platform]-" stroke="none" stroke-width="1" fill="none" fill-rule="evenodd">
        <g id="Artboard" transform="translate(-522.000000, -392.000000)">
            <g id="Logo-Reveal" transform="translate(522.000000, 392.000000)">
                <g id="Group-5">
                    <mask id="mask-2" fill="white">
                        <use xlink:href="#path-1"></use>
                    </mask>
                    <g id="Clip-4"></g>
                    <path d="M11.8943341,22.4240841 L14.1299684,22.418191 C16.465758,22.4113912 18.2571978,21.8762508 19.5038747,20.8116363 C20.7495191,19.7470219 21.3713087,18.2197977 21.3665591,16.230417 C21.3622224,14.2408096 20.7334116,12.7172119 19.4828111,11.6593972 C18.2313846,10.6018092 16.4374667,10.0764151 14.1014705,10.0829881 L11.8658363,10.0891079 L11.8943341,22.4240841 Z M38,50.0070501 L23.2569152,50.0480753 L11.9137457,30.8469365 L11.957938,50.0793541 L0.115023857,50.1119929 L0,0.107525784 L18.4292173,0.0565276469 C20.9669699,0.0495012368 23.1825731,0.452726511 25.0785049,1.26507018 C26.9731977,2.07832048 28.5362418,3.19030653 29.7688763,4.60125501 C31.0002717,6.01333677 31.9301684,7.64595715 32.5593922,9.5009294 C33.1877901,11.3565816 33.5047768,13.3450557 33.509733,15.4674848 C33.5184062,19.2701326 32.689078,22.3563133 31.0236069,24.7255734 C29.3568968,27.0961935 26.8936929,28.706148 23.6327562,29.5543037 L38,50.0070501 Z" id="Fill-3" fill="#000000" mask="url(#mask-2)"></path>
                </g>
                <polygon id="Fill-6" fill="#000000" points="157 10.7878465 142.335618 10.7878465 142.335618 18.9760387 156.182052 18.9760387 156.182052 29.7641064 142.335618 29.7641064 142.335618 38.2121535 157 38.2121535 157 49 130 49 130 0 157 0"></polygon>
                <g id="Group-10" transform="translate(209.000000, 0.000000)">
                    <mask id="mask-4" fill="white">
                        <use xlink:href="#path-3"></use>
                    </mask>
                    <g id="Clip-9"></g>
                    <polygon id="Fill-8" fill="#000000" mask="url(#mask-4)" points="12.6886476 0.168822362 12.6886476 38.4850455 27.7818421 38.4850455 27.7818421 49.3022724 0.100385251 49.3022724 0.100385251 0.168822362"></polygon>
                </g>
                <polygon id="Fill-11" fill="#000000" points="209 49 196.850112 48.9265224 177 0 190.533419 0.0060118055"></polygon>
                <polygon id="Fill-13" fill="#000000" points="178 30 165.412542 30 157 49.7250337 169.784235 50"></polygon>
                <polygon id="Fill-15" fill="#000000" points="184.451225 38 189 30 169 30.0078051 173.70587 37.9711001"></polygon>
                <polygon id="Fill-17" fill="#000000" points="102 50 89.5813286 50 70 0 83.582932 0"></polygon>
                <polygon id="Fill-1" fill="#000000" points="68 11.007957 53.3355201 11.007957 53.3355201 19.3632174 67.1818441 19.3632174 67.1818441 30.3714001 53.3355201 30.3714001 53.3355201 38.992043 68 38.992043 68 50 41 50 41 0 68 0"></polygon>
                <polyline id="Fill-2" fill="#000000" points="95.8929987 40.216052 100.265866 30.4377457 112.620355 0 127 0 105.531503 50 95 50"></polyline>
            </g>
        </g>
    </g>
</svg>